solid OpenSCAD_Model
  facet normal 0.996917 0.0784594 0
    outer loop
      vertex 17 0 6.2
      vertex 16.7907 2.65939 5
      vertex 16.7907 2.65939 6.2
    endloop
  endfacet
  facet normal 0.996917 0.0784594 0
    outer loop
      vertex 16.7907 2.65939 5
      vertex 17 0 6.2
      vertex 17 0 5
    endloop
  endfacet
  facet normal -0.996917 0.0784594 0
    outer loop
      vertex -17 0 5
      vertex -16.7907 2.65939 6.2
      vertex -16.7907 2.65939 5
    endloop
  endfacet
  facet normal -0.996917 0.0784594 0
    outer loop
      vertex -16.7907 2.65939 6.2
      vertex -17 0 5
      vertex -17 0 6.2
    endloop
  endfacet
  facet normal 0.0784594 0.996917 -0
    outer loop
      vertex 2.65939 16.7907 5
      vertex 0 17 6.2
      vertex 2.65939 16.7907 6.2
    endloop
  endfacet
  facet normal 0.0784594 0.996917 0
    outer loop
      vertex 0 17 6.2
      vertex 2.65939 16.7907 5
      vertex 0 17 5
    endloop
  endfacet
  facet normal -0.0784594 -0.996917 0
    outer loop
      vertex -2.65939 -16.7907 5
      vertex 0 -17 6.2
      vertex -2.65939 -16.7907 6.2
    endloop
  endfacet
  facet normal -0.0784594 -0.996917 -0
    outer loop
      vertex 0 -17 6.2
      vertex -2.65939 -16.7907 5
      vertex 0 -17 5
    endloop
  endfacet
  facet normal 0.760406 0.649448 0
    outer loop
      vertex 13.7533 9.99235 6.2
      vertex 12.0208 12.0208 5
      vertex 12.0208 12.0208 6.2
    endloop
  endfacet
  facet normal 0.760406 0.649448 0
    outer loop
      vertex 12.0208 12.0208 5
      vertex 13.7533 9.99235 6.2
      vertex 13.7533 9.99235 5
    endloop
  endfacet
  facet normal -0.649448 0.760406 0
    outer loop
      vertex -9.99235 13.7533 5
      vertex -12.0208 12.0208 6.2
      vertex -9.99235 13.7533 6.2
    endloop
  endfacet
  facet normal -0.649448 0.760406 0
    outer loop
      vertex -12.0208 12.0208 6.2
      vertex -9.99235 13.7533 5
      vertex -12.0208 12.0208 5
    endloop
  endfacet
  facet normal -0.233445 0.97237 0
    outer loop
      vertex -2.65939 16.7907 5
      vertex -5.25329 16.168 6.2
      vertex -2.65939 16.7907 6.2
    endloop
  endfacet
  facet normal -0.233445 0.97237 0
    outer loop
      vertex -5.25329 16.168 6.2
      vertex -2.65939 16.7907 5
      vertex -5.25329 16.168 5
    endloop
  endfacet
  facet normal 0 0 -1
    outer loop
      vertex 14.3 0 5
      vertex 17 0 5
      vertex 16.7907 -2.65939 5
    endloop
  endfacet
  facet normal 0 0 -1
    outer loop
      vertex 14.1239 -2.23701 5
      vertex 16.7907 -2.65939 5
      vertex 16.168 -5.25329 5
    endloop
  endfacet
  facet normal 0 0 -1
    outer loop
      vertex 17 0 5
      vertex 14.3 0 5
      vertex 16.7907 2.65939 5
    endloop
  endfacet
  facet normal 0 0 -1
    outer loop
      vertex 13.6001 -4.41894 5
      vertex 16.168 -5.25329 5
      vertex 15.1471 -7.71784 5
    endloop
  endfacet
  facet normal 0 0 -1
    outer loop
      vertex 14.1239 2.23701 5
      vertex 16.7907 2.65939 5
      vertex 14.3 0 5
    endloop
  endfacet
  facet normal -0 0 -1
    outer loop
      vertex 16.7907 2.65939 5
      vertex 14.1239 2.23701 5
      vertex 16.168 5.25329 5
    endloop
  endfacet
  facet normal 0 0 -1
    outer loop
      vertex 16.7907 -2.65939 5
      vertex 14.1239 -2.23701 5
      vertex 14.3 0 5
    endloop
  endfacet
  facet normal 0 0 -1
    outer loop
      vertex 12.7414 -6.49206 5
      vertex 15.1471 -7.71784 5
      vertex 13.7533 -9.99235 5
    endloop
  endfacet
  facet normal 0 0 -1
    outer loop
      vertex 16.168 -5.25329 5
      vertex 13.6001 -4.41894 5
      vertex 14.1239 -2.23701 5
    endloop
  endfacet
  facet normal 0 0 -1
    outer loop
      vertex 15.1471 -7.71784 5
      vertex 12.7414 -6.49206 5
      vertex 13.6001 -4.41894 5
    endloop
  endfacet
  facet normal 0 0 -1
    outer loop
      vertex 11.5689 -8.40533 5
      vertex 13.7533 -9.99235 5
      vertex 12.0208 -12.0208 5
    endloop
  endfacet
  facet normal 0 0 -1
    outer loop
      vertex 13.7533 -9.99235 5
      vertex 11.5689 -8.40533 5
      vertex 12.7414 -6.49206 5
    endloop
  endfacet
  facet normal 0 0 -1
    outer loop
      vertex 12.0208 -12.0208 5
      vertex 10.1116 -10.1116 5
      vertex 11.5689 -8.40533 5
    endloop
  endfacet
  facet normal 0 0 -1
    outer loop
      vertex 9.99235 -13.7533 5
      vertex 10.1116 -10.1116 5
      vertex 12.0208 -12.0208 5
    endloop
  endfacet
  facet normal 0 0 -1
    outer loop
      vertex 9.99235 -13.7533 5
      vertex 8.40533 -11.5689 5
      vertex 10.1116 -10.1116 5
    endloop
  endfacet
  facet normal 0 0 -1
    outer loop
      vertex 7.71784 -15.1471 5
      vertex 8.40533 -11.5689 5
      vertex 9.99235 -13.7533 5
    endloop
  endfacet
  facet normal 0 0 -1
    outer loop
      vertex 7.71784 -15.1471 5
      vertex 6.49206 -12.7414 5
      vertex 8.40533 -11.5689 5
    endloop
  endfacet
  facet normal 0 0 -1
    outer loop
      vertex 5.25329 -16.168 5
      vertex 6.49206 -12.7414 5
      vertex 7.71784 -15.1471 5
    endloop
  endfacet
  facet normal 0 0 -1
    outer loop
      vertex 5.25329 -16.168 5
      vertex 4.41894 -13.6001 5
      vertex 6.49206 -12.7414 5
    endloop
  endfacet
  facet normal 0 0 -1
    outer loop
      vertex 2.65939 -16.7907 5
      vertex 4.41894 -13.6001 5
      vertex 5.25329 -16.168 5
    endloop
  endfacet
  facet normal 0 0 -1
    outer loop
      vertex 2.65939 -16.7907 5
      vertex 2.23701 -14.1239 5
      vertex 4.41894 -13.6001 5
    endloop
  endfacet
  facet normal 0 0 -1
    outer loop
      vertex 0 -17 5
      vertex 2.23701 -14.1239 5
      vertex 2.65939 -16.7907 5
    endloop
  endfacet
  facet normal 0 0 -1
    outer loop
      vertex 0 -17 5
      vertex 0 -14.3 5
      vertex 2.23701 -14.1239 5
    endloop
  endfacet
  facet normal 0 0 -1
    outer loop
      vertex 0 -17 5
      vertex -2.23701 -14.1239 5
      vertex 0 -14.3 5
    endloop
  endfacet
  facet normal 0 0 -1
    outer loop
      vertex -2.65939 -16.7907 5
      vertex -2.23701 -14.1239 5
      vertex 0 -17 5
    endloop
  endfacet
  facet normal 0 0 -1
    outer loop
      vertex -2.65939 -16.7907 5
      vertex -4.41894 -13.6001 5
      vertex -2.23701 -14.1239 5
    endloop
  endfacet
  facet normal 0 0 -1
    outer loop
      vertex -5.25329 -16.168 5
      vertex -4.41894 -13.6001 5
      vertex -2.65939 -16.7907 5
    endloop
  endfacet
  facet normal 0 0 -1
    outer loop
      vertex -5.25329 -16.168 5
      vertex -6.49206 -12.7414 5
      vertex -4.41894 -13.6001 5
    endloop
  endfacet
  facet normal 0 0 -1
    outer loop
      vertex -7.71784 -15.1471 5
      vertex -6.49206 -12.7414 5
      vertex -5.25329 -16.168 5
    endloop
  endfacet
  facet normal 0 0 -1
    outer loop
      vertex -7.71784 -15.1471 5
      vertex -8.40533 -11.5689 5
      vertex -6.49206 -12.7414 5
    endloop
  endfacet
  facet normal 0 0 -1
    outer loop
      vertex -9.99235 -13.7533 5
      vertex -8.40533 -11.5689 5
      vertex -7.71784 -15.1471 5
    endloop
  endfacet
  facet normal 0 0 -1
    outer loop
      vertex -9.99235 -13.7533 5
      vertex -10.1116 -10.1116 5
      vertex -8.40533 -11.5689 5
    endloop
  endfacet
  facet normal 0 0 -1
    outer loop
      vertex -12.0208 -12.0208 5
      vertex -10.1116 -10.1116 5
      vertex -9.99235 -13.7533 5
    endloop
  endfacet
  facet normal -0 0 -1
    outer loop
      vertex -10.1116 -10.1116 5
      vertex -12.0208 -12.0208 5
      vertex -11.5689 -8.40533 5
    endloop
  endfacet
  facet normal 0 0 -1
    outer loop
      vertex -13.7533 -9.99235 5
      vertex -11.5689 -8.40533 5
      vertex -12.0208 -12.0208 5
    endloop
  endfacet
  facet normal -0 0 -1
    outer loop
      vertex -11.5689 -8.40533 5
      vertex -13.7533 -9.99235 5
      vertex -12.7414 -6.49206 5
    endloop
  endfacet
  facet normal 0 0 -1
    outer loop
      vertex -15.1471 -7.71784 5
      vertex -12.7414 -6.49206 5
      vertex -13.7533 -9.99235 5
    endloop
  endfacet
  facet normal -0 0 -1
    outer loop
      vertex -12.7414 -6.49206 5
      vertex -15.1471 -7.71784 5
      vertex -13.6001 -4.41894 5
    endloop
  endfacet
  facet normal 0 0 -1
    outer loop
      vertex -16.168 -5.25329 5
      vertex -13.6001 -4.41894 5
      vertex -15.1471 -7.71784 5
    endloop
  endfacet
  facet normal -0 0 -1
    outer loop
      vertex -13.6001 -4.41894 5
      vertex -16.168 -5.25329 5
      vertex -14.1239 -2.23701 5
    endloop
  endfacet
  facet normal 0 0 -1
    outer loop
      vertex 13.6001 4.41894 5
      vertex 16.168 5.25329 5
      vertex 14.1239 2.23701 5
    endloop
  endfacet
  facet normal -0 0 -1
    outer loop
      vertex 16.168 5.25329 5
      vertex 13.6001 4.41894 5
      vertex 15.1471 7.71784 5
    endloop
  endfacet
  facet normal 0 0 -1
    outer loop
      vertex 12.7414 6.49206 5
      vertex 15.1471 7.71784 5
      vertex 13.6001 4.41894 5
    endloop
  endfacet
  facet normal -0 0 -1
    outer loop
      vertex 15.1471 7.71784 5
      vertex 12.7414 6.49206 5
      vertex 13.7533 9.99235 5
    endloop
  endfacet
  facet normal 0 0 -1
    outer loop
      vertex 11.5689 8.40533 5
      vertex 13.7533 9.99235 5
      vertex 12.7414 6.49206 5
    endloop
  endfacet
  facet normal -0 0 -1
    outer loop
      vertex 13.7533 9.99235 5
      vertex 11.5689 8.40533 5
      vertex 12.0208 12.0208 5
    endloop
  endfacet
  facet normal 0 0 -1
    outer loop
      vertex 10.1116 10.1116 5
      vertex 12.0208 12.0208 5
      vertex 11.5689 8.40533 5
    endloop
  endfacet
  facet normal 0 0 -1
    outer loop
      vertex 10.1116 10.1116 5
      vertex 9.99235 13.7533 5
      vertex 12.0208 12.0208 5
    endloop
  endfacet
  facet normal 0 0 -1
    outer loop
      vertex 8.40533 11.5689 5
      vertex 9.99235 13.7533 5
      vertex 10.1116 10.1116 5
    endloop
  endfacet
  facet normal 0 0 -1
    outer loop
      vertex 8.40533 11.5689 5
      vertex 7.71784 15.1471 5
      vertex 9.99235 13.7533 5
    endloop
  endfacet
  facet normal 0 0 -1
    outer loop
      vertex 6.49206 12.7414 5
      vertex 7.71784 15.1471 5
      vertex 8.40533 11.5689 5
    endloop
  endfacet
  facet normal 0 0 -1
    outer loop
      vertex 6.49206 12.7414 5
      vertex 5.25329 16.168 5
      vertex 7.71784 15.1471 5
    endloop
  endfacet
  facet normal 0 0 -1
    outer loop
      vertex 4.41894 13.6001 5
      vertex 5.25329 16.168 5
      vertex 6.49206 12.7414 5
    endloop
  endfacet
  facet normal 0 0 -1
    outer loop
      vertex 4.41894 13.6001 5
      vertex 2.65939 16.7907 5
      vertex 5.25329 16.168 5
    endloop
  endfacet
  facet normal 0 0 -1
    outer loop
      vertex 2.23701 14.1239 5
      vertex 2.65939 16.7907 5
      vertex 4.41894 13.6001 5
    endloop
  endfacet
  facet normal 0 0 -1
    outer loop
      vertex 0 14.3 5
      vertex 2.65939 16.7907 5
      vertex 2.23701 14.1239 5
    endloop
  endfacet
  facet normal 0 0 -1
    outer loop
      vertex 0 14.3 5
      vertex 0 17 5
      vertex 2.65939 16.7907 5
    endloop
  endfacet
  facet normal 0 0 -1
    outer loop
      vertex -2.23701 14.1239 5
      vertex 0 17 5
      vertex 0 14.3 5
    endloop
  endfacet
  facet normal 0 0 -1
    outer loop
      vertex -2.23701 14.1239 5
      vertex -2.65939 16.7907 5
      vertex 0 17 5
    endloop
  endfacet
  facet normal 0 0 -1
    outer loop
      vertex -4.41894 13.6001 5
      vertex -2.65939 16.7907 5
      vertex -2.23701 14.1239 5
    endloop
  endfacet
  facet normal 0 0 -1
    outer loop
      vertex -4.41894 13.6001 5
      vertex -5.25329 16.168 5
      vertex -2.65939 16.7907 5
    endloop
  endfacet
  facet normal 0 0 -1
    outer loop
      vertex -6.49206 12.7414 5
      vertex -5.25329 16.168 5
      vertex -4.41894 13.6001 5
    endloop
  endfacet
  facet normal 0 0 -1
    outer loop
      vertex -6.49206 12.7414 5
      vertex -7.71784 15.1471 5
      vertex -5.25329 16.168 5
    endloop
  endfacet
  facet normal 0 0 -1
    outer loop
      vertex -8.40533 11.5689 5
      vertex -7.71784 15.1471 5
      vertex -6.49206 12.7414 5
    endloop
  endfacet
  facet normal 0 0 -1
    outer loop
      vertex -8.40533 11.5689 5
      vertex -9.99235 13.7533 5
      vertex -7.71784 15.1471 5
    endloop
  endfacet
  facet normal 0 0 -1
    outer loop
      vertex -10.1116 10.1116 5
      vertex -9.99235 13.7533 5
      vertex -8.40533 11.5689 5
    endloop
  endfacet
  facet normal 0 0 -1
    outer loop
      vertex -12.0208 12.0208 5
      vertex -10.1116 10.1116 5
      vertex -11.5689 8.40533 5
    endloop
  endfacet
  facet normal 0 0 -1
    outer loop
      vertex -10.1116 10.1116 5
      vertex -12.0208 12.0208 5
      vertex -9.99235 13.7533 5
    endloop
  endfacet
  facet normal 0 0 -1
    outer loop
      vertex -13.7533 9.99235 5
      vertex -11.5689 8.40533 5
      vertex -12.7414 6.49206 5
    endloop
  endfacet
  facet normal 0 0 -1
    outer loop
      vertex -15.1471 7.71784 5
      vertex -12.7414 6.49206 5
      vertex -13.6001 4.41894 5
    endloop
  endfacet
  facet normal 0 0 -1
    outer loop
      vertex -11.5689 8.40533 5
      vertex -13.7533 9.99235 5
      vertex -12.0208 12.0208 5
    endloop
  endfacet
  facet normal 0 0 -1
    outer loop
      vertex -16.168 5.25329 5
      vertex -13.6001 4.41894 5
      vertex -14.1239 2.23701 5
    endloop
  endfacet
  facet normal 0 0 -1
    outer loop
      vertex -16.7907 2.65939 5
      vertex -14.1239 2.23701 5
      vertex -14.3 0 5
    endloop
  endfacet
  facet normal 0 0 -1
    outer loop
      vertex -16.7907 -2.65939 5
      vertex -14.1239 -2.23701 5
      vertex -16.168 -5.25329 5
    endloop
  endfacet
  facet normal 0 0 -1
    outer loop
      vertex -12.7414 6.49206 5
      vertex -15.1471 7.71784 5
      vertex -13.7533 9.99235 5
    endloop
  endfacet
  facet normal -0 0 -1
    outer loop
      vertex -14.1239 -2.23701 5
      vertex -16.7907 -2.65939 5
      vertex -14.3 0 5
    endloop
  endfacet
  facet normal 0 0 -1
    outer loop
      vertex -13.6001 4.41894 5
      vertex -16.168 5.25329 5
      vertex -15.1471 7.71784 5
    endloop
  endfacet
  facet normal 0 0 -1
    outer loop
      vertex -17 0 5
      vertex -14.3 0 5
      vertex -16.7907 -2.65939 5
    endloop
  endfacet
  facet normal 0 0 -1
    outer loop
      vertex -14.1239 2.23701 5
      vertex -16.7907 2.65939 5
      vertex -16.168 5.25329 5
    endloop
  endfacet
  facet normal 0 0 -1
    outer loop
      vertex -14.3 0 5
      vertex -17 0 5
      vertex -16.7907 2.65939 5
    endloop
  endfacet
  facet normal 0.923879 0.382684 0
    outer loop
      vertex 16.168 5.25329 6.2
      vertex 15.1471 7.71784 5
      vertex 15.1471 7.71784 6.2
    endloop
  endfacet
  facet normal 0.923879 0.382684 0
    outer loop
      vertex 15.1471 7.71784 5
      vertex 16.168 5.25329 6.2
      vertex 16.168 5.25329 5
    endloop
  endfacet
  facet normal 0.97237 0.233445 0
    outer loop
      vertex 16.7907 2.65939 6.2
      vertex 16.168 5.25329 5
      vertex 16.168 5.25329 6.2
    endloop
  endfacet
  facet normal 0.97237 0.233445 0
    outer loop
      vertex 16.168 5.25329 5
      vertex 16.7907 2.65939 6.2
      vertex 16.7907 2.65939 5
    endloop
  endfacet
  facet normal 0.85264 0.522499 0
    outer loop
      vertex 15.1471 7.71784 6.2
      vertex 13.7533 9.99235 5
      vertex 13.7533 9.99235 6.2
    endloop
  endfacet
  facet normal 0.85264 0.522499 0
    outer loop
      vertex 13.7533 9.99235 5
      vertex 15.1471 7.71784 6.2
      vertex 15.1471 7.71784 5
    endloop
  endfacet
  facet normal 0.382684 0.923879 -0
    outer loop
      vertex 7.71784 15.1471 5
      vertex 5.25329 16.168 6.2
      vertex 7.71784 15.1471 6.2
    endloop
  endfacet
  facet normal 0.382684 0.923879 0
    outer loop
      vertex 5.25329 16.168 6.2
      vertex 7.71784 15.1471 5
      vertex 5.25329 16.168 5
    endloop
  endfacet
  facet normal 0.233445 0.97237 -0
    outer loop
      vertex 5.25329 16.168 5
      vertex 2.65939 16.7907 6.2
      vertex 5.25329 16.168 6.2
    endloop
  endfacet
  facet normal 0.233445 0.97237 0
    outer loop
      vertex 2.65939 16.7907 6.2
      vertex 5.25329 16.168 5
      vertex 2.65939 16.7907 5
    endloop
  endfacet
  facet normal 0.522499 0.85264 -0
    outer loop
      vertex 9.99235 13.7533 5
      vertex 7.71784 15.1471 6.2
      vertex 9.99235 13.7533 6.2
    endloop
  endfacet
  facet normal 0.522499 0.85264 0
    outer loop
      vertex 7.71784 15.1471 6.2
      vertex 9.99235 13.7533 5
      vertex 7.71784 15.1471 5
    endloop
  endfacet
  facet normal -0.923879 0.382684 0
    outer loop
      vertex -16.168 5.25329 5
      vertex -15.1471 7.71784 6.2
      vertex -15.1471 7.71784 5
    endloop
  endfacet
  facet normal -0.923879 0.382684 0
    outer loop
      vertex -15.1471 7.71784 6.2
      vertex -16.168 5.25329 5
      vertex -16.168 5.25329 6.2
    endloop
  endfacet
  facet normal -0.85264 0.522499 0
    outer loop
      vertex -15.1471 7.71784 5
      vertex -13.7533 9.99235 6.2
      vertex -13.7533 9.99235 5
    endloop
  endfacet
  facet normal -0.85264 0.522499 0
    outer loop
      vertex -13.7533 9.99235 6.2
      vertex -15.1471 7.71784 5
      vertex -15.1471 7.71784 6.2
    endloop
  endfacet
  facet normal -0.97237 0.233445 0
    outer loop
      vertex -16.7907 2.65939 5
      vertex -16.168 5.25329 6.2
      vertex -16.168 5.25329 5
    endloop
  endfacet
  facet normal -0.97237 0.233445 0
    outer loop
      vertex -16.168 5.25329 6.2
      vertex -16.7907 2.65939 5
      vertex -16.7907 2.65939 6.2
    endloop
  endfacet
  facet normal 0 0 1
    outer loop
      vertex 15.5 0 6.2
      vertex 17 0 6.2
      vertex 16.7907 2.65939 6.2
    endloop
  endfacet
  facet normal 0 0 1
    outer loop
      vertex 15.3092 2.42473 6.2
      vertex 16.7907 2.65939 6.2
      vertex 16.168 5.25329 6.2
    endloop
  endfacet
  facet normal 0 0 1
    outer loop
      vertex 17 0 6.2
      vertex 15.5 0 6.2
      vertex 16.7907 -2.65939 6.2
    endloop
  endfacet
  facet normal -0 0 1
    outer loop
      vertex 15.3092 -2.42473 6.2
      vertex 16.7907 -2.65939 6.2
      vertex 15.5 0 6.2
    endloop
  endfacet
  facet normal 0 0 1
    outer loop
      vertex 16.7907 2.65939 6.2
      vertex 15.3092 2.42473 6.2
      vertex 15.5 0 6.2
    endloop
  endfacet
  facet normal 0 0 1
    outer loop
      vertex 14.7414 4.78976 6.2
      vertex 16.168 5.25329 6.2
      vertex 15.1471 7.71784 6.2
    endloop
  endfacet
  facet normal 0 0 1
    outer loop
      vertex 16.168 5.25329 6.2
      vertex 14.7414 4.78976 6.2
      vertex 15.3092 2.42473 6.2
    endloop
  endfacet
  facet normal 0 0 1
    outer loop
      vertex 15.1471 7.71784 6.2
      vertex 13.8106 7.03685 6.2
      vertex 14.7414 4.78976 6.2
    endloop
  endfacet
  facet normal 0 0 1
    outer loop
      vertex 13.7533 9.99235 6.2
      vertex 13.8106 7.03685 6.2
      vertex 15.1471 7.71784 6.2
    endloop
  endfacet
  facet normal 0 0 1
    outer loop
      vertex 13.7533 9.99235 6.2
      vertex 12.5398 9.11067 6.2
      vertex 13.8106 7.03685 6.2
    endloop
  endfacet
  facet normal 0 0 1
    outer loop
      vertex 12.0208 12.0208 6.2
      vertex 12.5398 9.11067 6.2
      vertex 13.7533 9.99235 6.2
    endloop
  endfacet
  facet normal 0 0 1
    outer loop
      vertex 12.0208 12.0208 6.2
      vertex 10.9602 10.9602 6.2
      vertex 12.5398 9.11067 6.2
    endloop
  endfacet
  facet normal 0 0 1
    outer loop
      vertex 9.99235 13.7533 6.2
      vertex 10.9602 10.9602 6.2
      vertex 12.0208 12.0208 6.2
    endloop
  endfacet
  facet normal 0 0 1
    outer loop
      vertex 9.99235 13.7533 6.2
      vertex 9.11067 12.5398 6.2
      vertex 10.9602 10.9602 6.2
    endloop
  endfacet
  facet normal 0 0 1
    outer loop
      vertex 7.71784 15.1471 6.2
      vertex 9.11067 12.5398 6.2
      vertex 9.99235 13.7533 6.2
    endloop
  endfacet
  facet normal 0 0 1
    outer loop
      vertex 7.71784 15.1471 6.2
      vertex 7.03685 13.8106 6.2
      vertex 9.11067 12.5398 6.2
    endloop
  endfacet
  facet normal 0 0 1
    outer loop
      vertex 5.25329 16.168 6.2
      vertex 7.03685 13.8106 6.2
      vertex 7.71784 15.1471 6.2
    endloop
  endfacet
  facet normal 0 0 1
    outer loop
      vertex 5.25329 16.168 6.2
      vertex 4.78976 14.7414 6.2
      vertex 7.03685 13.8106 6.2
    endloop
  endfacet
  facet normal 0 0 1
    outer loop
      vertex 2.65939 16.7907 6.2
      vertex 4.78976 14.7414 6.2
      vertex 5.25329 16.168 6.2
    endloop
  endfacet
  facet normal 0 0 1
    outer loop
      vertex 2.65939 16.7907 6.2
      vertex 2.42473 15.3092 6.2
      vertex 4.78976 14.7414 6.2
    endloop
  endfacet
  facet normal 0 0 1
    outer loop
      vertex 0 17 6.2
      vertex 2.42473 15.3092 6.2
      vertex 2.65939 16.7907 6.2
    endloop
  endfacet
  facet normal 0 0 1
    outer loop
      vertex 0 17 6.2
      vertex 0 15.5 6.2
      vertex 2.42473 15.3092 6.2
    endloop
  endfacet
  facet normal 0 0 1
    outer loop
      vertex 0 17 6.2
      vertex -2.42473 15.3092 6.2
      vertex 0 15.5 6.2
    endloop
  endfacet
  facet normal -0 0 1
    outer loop
      vertex -2.65939 16.7907 6.2
      vertex -2.42473 15.3092 6.2
      vertex 0 17 6.2
    endloop
  endfacet
  facet normal 0 0 1
    outer loop
      vertex -2.65939 16.7907 6.2
      vertex -4.78976 14.7414 6.2
      vertex -2.42473 15.3092 6.2
    endloop
  endfacet
  facet normal -0 0 1
    outer loop
      vertex -5.25329 16.168 6.2
      vertex -4.78976 14.7414 6.2
      vertex -2.65939 16.7907 6.2
    endloop
  endfacet
  facet normal 0 0 1
    outer loop
      vertex -5.25329 16.168 6.2
      vertex -7.03685 13.8106 6.2
      vertex -4.78976 14.7414 6.2
    endloop
  endfacet
  facet normal -0 0 1
    outer loop
      vertex -7.71784 15.1471 6.2
      vertex -7.03685 13.8106 6.2
      vertex -5.25329 16.168 6.2
    endloop
  endfacet
  facet normal 0 0 1
    outer loop
      vertex -7.71784 15.1471 6.2
      vertex -9.11067 12.5398 6.2
      vertex -7.03685 13.8106 6.2
    endloop
  endfacet
  facet normal -0 0 1
    outer loop
      vertex -9.99235 13.7533 6.2
      vertex -9.11067 12.5398 6.2
      vertex -7.71784 15.1471 6.2
    endloop
  endfacet
  facet normal 0 0 1
    outer loop
      vertex -9.99235 13.7533 6.2
      vertex -10.9602 10.9602 6.2
      vertex -9.11067 12.5398 6.2
    endloop
  endfacet
  facet normal -0 0 1
    outer loop
      vertex -12.0208 12.0208 6.2
      vertex -10.9602 10.9602 6.2
      vertex -9.99235 13.7533 6.2
    endloop
  endfacet
  facet normal 0 0 1
    outer loop
      vertex -12.0208 12.0208 6.2
      vertex -12.5398 9.11067 6.2
      vertex -10.9602 10.9602 6.2
    endloop
  endfacet
  facet normal -0 0 1
    outer loop
      vertex -13.7533 9.99235 6.2
      vertex -12.5398 9.11067 6.2
      vertex -12.0208 12.0208 6.2
    endloop
  endfacet
  facet normal 0 0 1
    outer loop
      vertex -13.7533 9.99235 6.2
      vertex -13.8106 7.03685 6.2
      vertex -12.5398 9.11067 6.2
    endloop
  endfacet
  facet normal -0 0 1
    outer loop
      vertex -15.1471 7.71784 6.2
      vertex -13.8106 7.03685 6.2
      vertex -13.7533 9.99235 6.2
    endloop
  endfacet
  facet normal 0 0 1
    outer loop
      vertex -13.8106 7.03685 6.2
      vertex -15.1471 7.71784 6.2
      vertex -14.7414 4.78976 6.2
    endloop
  endfacet
  facet normal -0 0 1
    outer loop
      vertex -16.168 5.25329 6.2
      vertex -14.7414 4.78976 6.2
      vertex -15.1471 7.71784 6.2
    endloop
  endfacet
  facet normal 0 0 1
    outer loop
      vertex -14.7414 4.78976 6.2
      vertex -16.168 5.25329 6.2
      vertex -15.3092 2.42473 6.2
    endloop
  endfacet
  facet normal -0 0 1
    outer loop
      vertex -16.7907 2.65939 6.2
      vertex -15.3092 2.42473 6.2
      vertex -16.168 5.25329 6.2
    endloop
  endfacet
  facet normal 0 0 1
    outer loop
      vertex 16.7907 -2.65939 6.2
      vertex 15.3092 -2.42473 6.2
      vertex 16.168 -5.25329 6.2
    endloop
  endfacet
  facet normal -0 0 1
    outer loop
      vertex 14.7414 -4.78976 6.2
      vertex 16.168 -5.25329 6.2
      vertex 15.3092 -2.42473 6.2
    endloop
  endfacet
  facet normal 0 0 1
    outer loop
      vertex 16.168 -5.25329 6.2
      vertex 14.7414 -4.78976 6.2
      vertex 15.1471 -7.71784 6.2
    endloop
  endfacet
  facet normal -0 0 1
    outer loop
      vertex 13.8106 -7.03685 6.2
      vertex 15.1471 -7.71784 6.2
      vertex 14.7414 -4.78976 6.2
    endloop
  endfacet
  facet normal 0 0 1
    outer loop
      vertex 13.8106 -7.03685 6.2
      vertex 13.7533 -9.99235 6.2
      vertex 15.1471 -7.71784 6.2
    endloop
  endfacet
  facet normal -0 0 1
    outer loop
      vertex 12.5398 -9.11067 6.2
      vertex 13.7533 -9.99235 6.2
      vertex 13.8106 -7.03685 6.2
    endloop
  endfacet
  facet normal 0 0 1
    outer loop
      vertex 12.5398 -9.11067 6.2
      vertex 12.0208 -12.0208 6.2
      vertex 13.7533 -9.99235 6.2
    endloop
  endfacet
  facet normal -0 0 1
    outer loop
      vertex 10.9602 -10.9602 6.2
      vertex 12.0208 -12.0208 6.2
      vertex 12.5398 -9.11067 6.2
    endloop
  endfacet
  facet normal 0 0 1
    outer loop
      vertex 10.9602 -10.9602 6.2
      vertex 9.99235 -13.7533 6.2
      vertex 12.0208 -12.0208 6.2
    endloop
  endfacet
  facet normal -0 0 1
    outer loop
      vertex 9.11067 -12.5398 6.2
      vertex 9.99235 -13.7533 6.2
      vertex 10.9602 -10.9602 6.2
    endloop
  endfacet
  facet normal 0 0 1
    outer loop
      vertex 9.11067 -12.5398 6.2
      vertex 7.71784 -15.1471 6.2
      vertex 9.99235 -13.7533 6.2
    endloop
  endfacet
  facet normal -0 0 1
    outer loop
      vertex 7.03685 -13.8106 6.2
      vertex 7.71784 -15.1471 6.2
      vertex 9.11067 -12.5398 6.2
    endloop
  endfacet
  facet normal 0 0 1
    outer loop
      vertex 7.03685 -13.8106 6.2
      vertex 5.25329 -16.168 6.2
      vertex 7.71784 -15.1471 6.2
    endloop
  endfacet
  facet normal -0 0 1
    outer loop
      vertex 4.78976 -14.7414 6.2
      vertex 5.25329 -16.168 6.2
      vertex 7.03685 -13.8106 6.2
    endloop
  endfacet
  facet normal 0 0 1
    outer loop
      vertex 4.78976 -14.7414 6.2
      vertex 2.65939 -16.7907 6.2
      vertex 5.25329 -16.168 6.2
    endloop
  endfacet
  facet normal -0 0 1
    outer loop
      vertex 2.42473 -15.3092 6.2
      vertex 2.65939 -16.7907 6.2
      vertex 4.78976 -14.7414 6.2
    endloop
  endfacet
  facet normal -0 0 1
    outer loop
      vertex 0 -15.5 6.2
      vertex 2.65939 -16.7907 6.2
      vertex 2.42473 -15.3092 6.2
    endloop
  endfacet
  facet normal 0 0 1
    outer loop
      vertex 0 -15.5 6.2
      vertex 0 -17 6.2
      vertex 2.65939 -16.7907 6.2
    endloop
  endfacet
  facet normal 0 0 1
    outer loop
      vertex -2.42473 -15.3092 6.2
      vertex 0 -17 6.2
      vertex 0 -15.5 6.2
    endloop
  endfacet
  facet normal 0 0 1
    outer loop
      vertex -2.42473 -15.3092 6.2
      vertex -2.65939 -16.7907 6.2
      vertex 0 -17 6.2
    endloop
  endfacet
  facet normal 0 0 1
    outer loop
      vertex -4.78976 -14.7414 6.2
      vertex -2.65939 -16.7907 6.2
      vertex -2.42473 -15.3092 6.2
    endloop
  endfacet
  facet normal 0 0 1
    outer loop
      vertex -4.78976 -14.7414 6.2
      vertex -5.25329 -16.168 6.2
      vertex -2.65939 -16.7907 6.2
    endloop
  endfacet
  facet normal 0 0 1
    outer loop
      vertex -7.03685 -13.8106 6.2
      vertex -5.25329 -16.168 6.2
      vertex -4.78976 -14.7414 6.2
    endloop
  endfacet
  facet normal 0 0 1
    outer loop
      vertex -7.03685 -13.8106 6.2
      vertex -7.71784 -15.1471 6.2
      vertex -5.25329 -16.168 6.2
    endloop
  endfacet
  facet normal 0 0 1
    outer loop
      vertex -9.11067 -12.5398 6.2
      vertex -7.71784 -15.1471 6.2
      vertex -7.03685 -13.8106 6.2
    endloop
  endfacet
  facet normal 0 0 1
    outer loop
      vertex -9.11067 -12.5398 6.2
      vertex -9.99235 -13.7533 6.2
      vertex -7.71784 -15.1471 6.2
    endloop
  endfacet
  facet normal 0 0 1
    outer loop
      vertex -10.9602 -10.9602 6.2
      vertex -9.99235 -13.7533 6.2
      vertex -9.11067 -12.5398 6.2
    endloop
  endfacet
  facet normal 0 0 1
    outer loop
      vertex -10.9602 -10.9602 6.2
      vertex -12.0208 -12.0208 6.2
      vertex -9.99235 -13.7533 6.2
    endloop
  endfacet
  facet normal 0 0 1
    outer loop
      vertex -12.5398 -9.11067 6.2
      vertex -12.0208 -12.0208 6.2
      vertex -10.9602 -10.9602 6.2
    endloop
  endfacet
  facet normal 0 0 1
    outer loop
      vertex -12.5398 -9.11067 6.2
      vertex -13.7533 -9.99235 6.2
      vertex -12.0208 -12.0208 6.2
    endloop
  endfacet
  facet normal 0 0 1
    outer loop
      vertex -13.8106 -7.03685 6.2
      vertex -13.7533 -9.99235 6.2
      vertex -12.5398 -9.11067 6.2
    endloop
  endfacet
  facet normal 0 0 1
    outer loop
      vertex -15.1471 -7.71784 6.2
      vertex -13.8106 -7.03685 6.2
      vertex -14.7414 -4.78976 6.2
    endloop
  endfacet
  facet normal 0 0 1
    outer loop
      vertex -13.8106 -7.03685 6.2
      vertex -15.1471 -7.71784 6.2
      vertex -13.7533 -9.99235 6.2
    endloop
  endfacet
  facet normal 0 0 1
    outer loop
      vertex -16.168 -5.25329 6.2
      vertex -14.7414 -4.78976 6.2
      vertex -15.3092 -2.42473 6.2
    endloop
  endfacet
  facet normal 0 0 1
    outer loop
      vertex -16.7907 -2.65939 6.2
      vertex -15.3092 -2.42473 6.2
      vertex -15.5 0 6.2
    endloop
  endfacet
  facet normal 0 0 1
    outer loop
      vertex -15.3092 2.42473 6.2
      vertex -16.7907 2.65939 6.2
      vertex -15.5 0 6.2
    endloop
  endfacet
  facet normal 0 0 1
    outer loop
      vertex -14.7414 -4.78976 6.2
      vertex -16.168 -5.25329 6.2
      vertex -15.1471 -7.71784 6.2
    endloop
  endfacet
  facet normal 0 0 1
    outer loop
      vertex -17 0 6.2
      vertex -15.5 0 6.2
      vertex -16.7907 2.65939 6.2
    endloop
  endfacet
  facet normal 0 0 1
    outer loop
      vertex -15.3092 -2.42473 6.2
      vertex -16.7907 -2.65939 6.2
      vertex -16.168 -5.25329 6.2
    endloop
  endfacet
  facet normal 0 0 1
    outer loop
      vertex -15.5 0 6.2
      vertex -17 0 6.2
      vertex -16.7907 -2.65939 6.2
    endloop
  endfacet
  facet normal -0.382684 0.923879 0
    outer loop
      vertex -5.25329 16.168 5
      vertex -7.71784 15.1471 6.2
      vertex -5.25329 16.168 6.2
    endloop
  endfacet
  facet normal -0.382684 0.923879 0
    outer loop
      vertex -7.71784 15.1471 6.2
      vertex -5.25329 16.168 5
      vertex -7.71784 15.1471 5
    endloop
  endfacet
  facet normal -0.0784594 0.996917 0
    outer loop
      vertex 0 17 5
      vertex -2.65939 16.7907 6.2
      vertex 0 17 6.2
    endloop
  endfacet
  facet normal -0.0784594 0.996917 0
    outer loop
      vertex -2.65939 16.7907 6.2
      vertex 0 17 5
      vertex -2.65939 16.7907 5
    endloop
  endfacet
  facet normal 0.0784594 -0.996917 0
    outer loop
      vertex 0 -17 5
      vertex 2.65939 -16.7907 6.2
      vertex 0 -17 6.2
    endloop
  endfacet
  facet normal 0.0784594 -0.996917 0
    outer loop
      vertex 2.65939 -16.7907 6.2
      vertex 0 -17 5
      vertex 2.65939 -16.7907 5
    endloop
  endfacet
  facet normal 0.649448 -0.760406 0
    outer loop
      vertex 9.99235 -13.7533 5
      vertex 12.0208 -12.0208 6.2
      vertex 9.99235 -13.7533 6.2
    endloop
  endfacet
  facet normal 0.649448 -0.760406 0
    outer loop
      vertex 12.0208 -12.0208 6.2
      vertex 9.99235 -13.7533 5
      vertex 12.0208 -12.0208 5
    endloop
  endfacet
  facet normal 0.382684 -0.923879 0
    outer loop
      vertex 5.25329 -16.168 5
      vertex 7.71784 -15.1471 6.2
      vertex 5.25329 -16.168 6.2
    endloop
  endfacet
  facet normal 0.382684 -0.923879 0
    outer loop
      vertex 7.71784 -15.1471 6.2
      vertex 5.25329 -16.168 5
      vertex 7.71784 -15.1471 5
    endloop
  endfacet
  facet normal 0.97237 -0.233445 0
    outer loop
      vertex 16.168 -5.25329 6.2
      vertex 16.7907 -2.65939 5
      vertex 16.7907 -2.65939 6.2
    endloop
  endfacet
  facet normal 0.97237 -0.233445 0
    outer loop
      vertex 16.7907 -2.65939 5
      vertex 16.168 -5.25329 6.2
      vertex 16.168 -5.25329 5
    endloop
  endfacet
  facet normal -0.382684 -0.923879 0
    outer loop
      vertex -7.71784 -15.1471 5
      vertex -5.25329 -16.168 6.2
      vertex -7.71784 -15.1471 6.2
    endloop
  endfacet
  facet normal -0.382684 -0.923879 -0
    outer loop
      vertex -5.25329 -16.168 6.2
      vertex -7.71784 -15.1471 5
      vertex -5.25329 -16.168 5
    endloop
  endfacet
  facet normal -0.233445 -0.97237 0
    outer loop
      vertex -5.25329 -16.168 5
      vertex -2.65939 -16.7907 6.2
      vertex -5.25329 -16.168 6.2
    endloop
  endfacet
  facet normal -0.233445 -0.97237 -0
    outer loop
      vertex -2.65939 -16.7907 6.2
      vertex -5.25329 -16.168 5
      vertex -2.65939 -16.7907 5
    endloop
  endfacet
  facet normal -0.923879 -0.382684 0
    outer loop
      vertex -15.1471 -7.71784 5
      vertex -16.168 -5.25329 6.2
      vertex -16.168 -5.25329 5
    endloop
  endfacet
  facet normal -0.923879 -0.382684 0
    outer loop
      vertex -16.168 -5.25329 6.2
      vertex -15.1471 -7.71784 5
      vertex -15.1471 -7.71784 6.2
    endloop
  endfacet
  facet normal -0.85264 -0.522499 0
    outer loop
      vertex -13.7533 -9.99235 5
      vertex -15.1471 -7.71784 6.2
      vertex -15.1471 -7.71784 5
    endloop
  endfacet
  facet normal -0.85264 -0.522499 0
    outer loop
      vertex -15.1471 -7.71784 6.2
      vertex -13.7533 -9.99235 5
      vertex -13.7533 -9.99235 6.2
    endloop
  endfacet
  facet normal -0.996917 -0.0784594 0
    outer loop
      vertex -16.7907 -2.65939 5
      vertex -17 0 6.2
      vertex -17 0 5
    endloop
  endfacet
  facet normal -0.996917 -0.0784594 0
    outer loop
      vertex -17 0 6.2
      vertex -16.7907 -2.65939 5
      vertex -16.7907 -2.65939 6.2
    endloop
  endfacet
  facet normal 0.649448 0.760406 -0
    outer loop
      vertex 12.0208 12.0208 5
      vertex 9.99235 13.7533 6.2
      vertex 12.0208 12.0208 6.2
    endloop
  endfacet
  facet normal 0.649448 0.760406 0
    outer loop
      vertex 9.99235 13.7533 6.2
      vertex 12.0208 12.0208 5
      vertex 9.99235 13.7533 5
    endloop
  endfacet
  facet normal -0.760406 0.649448 0
    outer loop
      vertex -13.7533 9.99235 5
      vertex -12.0208 12.0208 6.2
      vertex -12.0208 12.0208 5
    endloop
  endfacet
  facet normal -0.760406 0.649448 0
    outer loop
      vertex -12.0208 12.0208 6.2
      vertex -13.7533 9.99235 5
      vertex -13.7533 9.99235 6.2
    endloop
  endfacet
  facet normal 0.996917 -0.0784594 0
    outer loop
      vertex 16.7907 -2.65939 6.2
      vertex 17 0 5
      vertex 17 0 6.2
    endloop
  endfacet
  facet normal 0.996917 -0.0784594 0
    outer loop
      vertex 17 0 5
      vertex 16.7907 -2.65939 6.2
      vertex 16.7907 -2.65939 5
    endloop
  endfacet
  facet normal 0.233445 -0.97237 0
    outer loop
      vertex 2.65939 -16.7907 5
      vertex 5.25329 -16.168 6.2
      vertex 2.65939 -16.7907 6.2
    endloop
  endfacet
  facet normal 0.233445 -0.97237 0
    outer loop
      vertex 5.25329 -16.168 6.2
      vertex 2.65939 -16.7907 5
      vertex 5.25329 -16.168 5
    endloop
  endfacet
  facet normal 0.522499 -0.85264 0
    outer loop
      vertex 7.71784 -15.1471 5
      vertex 9.99235 -13.7533 6.2
      vertex 7.71784 -15.1471 6.2
    endloop
  endfacet
  facet normal 0.522499 -0.85264 0
    outer loop
      vertex 9.99235 -13.7533 6.2
      vertex 7.71784 -15.1471 5
      vertex 9.99235 -13.7533 5
    endloop
  endfacet
  facet normal 0.923879 -0.382684 0
    outer loop
      vertex 15.1471 -7.71784 6.2
      vertex 16.168 -5.25329 5
      vertex 16.168 -5.25329 6.2
    endloop
  endfacet
  facet normal 0.923879 -0.382684 0
    outer loop
      vertex 16.168 -5.25329 5
      vertex 15.1471 -7.71784 6.2
      vertex 15.1471 -7.71784 5
    endloop
  endfacet
  facet normal 0.760406 -0.649448 0
    outer loop
      vertex 12.0208 -12.0208 6.2
      vertex 13.7533 -9.99235 5
      vertex 13.7533 -9.99235 6.2
    endloop
  endfacet
  facet normal 0.760406 -0.649448 0
    outer loop
      vertex 13.7533 -9.99235 5
      vertex 12.0208 -12.0208 6.2
      vertex 12.0208 -12.0208 5
    endloop
  endfacet
  facet normal 0.85264 -0.522499 0
    outer loop
      vertex 13.7533 -9.99235 6.2
      vertex 15.1471 -7.71784 5
      vertex 15.1471 -7.71784 6.2
    endloop
  endfacet
  facet normal 0.85264 -0.522499 0
    outer loop
      vertex 15.1471 -7.71784 5
      vertex 13.7533 -9.99235 6.2
      vertex 13.7533 -9.99235 5
    endloop
  endfacet
  facet normal -0.649448 -0.760406 0
    outer loop
      vertex -12.0208 -12.0208 5
      vertex -9.99235 -13.7533 6.2
      vertex -12.0208 -12.0208 6.2
    endloop
  endfacet
  facet normal -0.649448 -0.760406 -0
    outer loop
      vertex -9.99235 -13.7533 6.2
      vertex -12.0208 -12.0208 5
      vertex -9.99235 -13.7533 5
    endloop
  endfacet
  facet normal -0.522499 -0.85264 0
    outer loop
      vertex -9.99235 -13.7533 5
      vertex -7.71784 -15.1471 6.2
      vertex -9.99235 -13.7533 6.2
    endloop
  endfacet
  facet normal -0.522499 -0.85264 -0
    outer loop
      vertex -7.71784 -15.1471 6.2
      vertex -9.99235 -13.7533 5
      vertex -7.71784 -15.1471 5
    endloop
  endfacet
  facet normal -0.760406 -0.649448 0
    outer loop
      vertex -12.0208 -12.0208 5
      vertex -13.7533 -9.99235 6.2
      vertex -13.7533 -9.99235 5
    endloop
  endfacet
  facet normal -0.760406 -0.649448 0
    outer loop
      vertex -13.7533 -9.99235 6.2
      vertex -12.0208 -12.0208 5
      vertex -12.0208 -12.0208 6.2
    endloop
  endfacet
  facet normal -0.97237 -0.233445 0
    outer loop
      vertex -16.168 -5.25329 5
      vertex -16.7907 -2.65939 6.2
      vertex -16.7907 -2.65939 5
    endloop
  endfacet
  facet normal -0.97237 -0.233445 0
    outer loop
      vertex -16.7907 -2.65939 6.2
      vertex -16.168 -5.25329 5
      vertex -16.168 -5.25329 6.2
    endloop
  endfacet
  facet normal -0.522499 0.85264 0
    outer loop
      vertex -7.71784 15.1471 5
      vertex -9.99235 13.7533 6.2
      vertex -7.71784 15.1471 6.2
    endloop
  endfacet
  facet normal -0.522499 0.85264 0
    outer loop
      vertex -9.99235 13.7533 6.2
      vertex -7.71784 15.1471 5
      vertex -9.99235 13.7533 5
    endloop
  endfacet
  facet normal 0.996917 0.0784593 0
    outer loop
      vertex 15.5 0 30.25
      vertex 15.3092 2.42473 6.2
      vertex 15.3092 2.42473 30.25
    endloop
  endfacet
  facet normal 0.996917 0.0784593 0
    outer loop
      vertex 15.3092 2.42473 6.2
      vertex 15.5 0 30.25
      vertex 15.5 0 6.2
    endloop
  endfacet
  facet normal -0.996917 0.0784593 0
    outer loop
      vertex -15.5 0 6.2
      vertex -15.3092 2.42473 30.25
      vertex -15.3092 2.42473 6.2
    endloop
  endfacet
  facet normal -0.996917 0.0784593 0
    outer loop
      vertex -15.3092 2.42473 30.25
      vertex -15.5 0 6.2
      vertex -15.5 0 30.25
    endloop
  endfacet
  facet normal 0.0784593 0.996917 -0
    outer loop
      vertex 2.42473 15.3092 6.2
      vertex 0 15.5 30.25
      vertex 2.42473 15.3092 30.25
    endloop
  endfacet
  facet normal 0.0784593 0.996917 0
    outer loop
      vertex 0 15.5 30.25
      vertex 2.42473 15.3092 6.2
      vertex 0 15.5 6.2
    endloop
  endfacet
  facet normal 0.760406 0.649448 0
    outer loop
      vertex 12.5398 9.11067 30.25
      vertex 10.9602 10.9602 6.2
      vertex 10.9602 10.9602 30.25
    endloop
  endfacet
  facet normal 0.760406 0.649448 0
    outer loop
      vertex 10.9602 10.9602 6.2
      vertex 12.5398 9.11067 30.25
      vertex 12.5398 9.11067 6.2
    endloop
  endfacet
  facet normal -0.649448 0.760406 0
    outer loop
      vertex -9.11067 12.5398 6.2
      vertex -10.9602 10.9602 30.25
      vertex -9.11067 12.5398 30.25
    endloop
  endfacet
  facet normal -0.649448 0.760406 0
    outer loop
      vertex -10.9602 10.9602 30.25
      vertex -9.11067 12.5398 6.2
      vertex -10.9602 10.9602 6.2
    endloop
  endfacet
  facet normal -0.233445 0.97237 0
    outer loop
      vertex -2.42473 15.3092 6.2
      vertex -4.78976 14.7414 30.25
      vertex -2.42473 15.3092 30.25
    endloop
  endfacet
  facet normal -0.233445 0.97237 0
    outer loop
      vertex -4.78976 14.7414 30.25
      vertex -2.42473 15.3092 6.2
      vertex -4.78976 14.7414 6.2
    endloop
  endfacet
  facet normal 0.649448 -0.760406 0
    outer loop
      vertex 9.11067 -12.5398 6.2
      vertex 10.9602 -10.9602 30.25
      vertex 9.11067 -12.5398 30.25
    endloop
  endfacet
  facet normal 0.649448 -0.760406 0
    outer loop
      vertex 10.9602 -10.9602 30.25
      vertex 9.11067 -12.5398 6.2
      vertex 10.9602 -10.9602 6.2
    endloop
  endfacet
  facet normal 0.923879 0.382684 0
    outer loop
      vertex 14.7414 4.78976 30.25
      vertex 13.8106 7.03685 6.2
      vertex 13.8106 7.03685 30.25
    endloop
  endfacet
  facet normal 0.923879 0.382684 0
    outer loop
      vertex 13.8106 7.03685 6.2
      vertex 14.7414 4.78976 30.25
      vertex 14.7414 4.78976 6.2
    endloop
  endfacet
  facet normal 0.97237 0.233445 0
    outer loop
      vertex 15.3092 2.42473 30.25
      vertex 14.7414 4.78976 6.2
      vertex 14.7414 4.78976 30.25
    endloop
  endfacet
  facet normal 0.97237 0.233445 0
    outer loop
      vertex 14.7414 4.78976 6.2
      vertex 15.3092 2.42473 30.25
      vertex 15.3092 2.42473 6.2
    endloop
  endfacet
  facet normal 0.85264 0.522498 0
    outer loop
      vertex 13.8106 7.03685 30.25
      vertex 12.5398 9.11067 6.2
      vertex 12.5398 9.11067 30.25
    endloop
  endfacet
  facet normal 0.85264 0.522498 0
    outer loop
      vertex 12.5398 9.11067 6.2
      vertex 13.8106 7.03685 30.25
      vertex 13.8106 7.03685 6.2
    endloop
  endfacet
  facet normal 0.382684 0.923879 -0
    outer loop
      vertex 7.03685 13.8106 6.2
      vertex 4.78976 14.7414 30.25
      vertex 7.03685 13.8106 30.25
    endloop
  endfacet
  facet normal 0.382684 0.923879 0
    outer loop
      vertex 4.78976 14.7414 30.25
      vertex 7.03685 13.8106 6.2
      vertex 4.78976 14.7414 6.2
    endloop
  endfacet
  facet normal 0.233445 0.97237 -0
    outer loop
      vertex 4.78976 14.7414 6.2
      vertex 2.42473 15.3092 30.25
      vertex 4.78976 14.7414 30.25
    endloop
  endfacet
  facet normal 0.233445 0.97237 0
    outer loop
      vertex 2.42473 15.3092 30.25
      vertex 4.78976 14.7414 6.2
      vertex 2.42473 15.3092 6.2
    endloop
  endfacet
  facet normal 0.649448 0.760406 -0
    outer loop
      vertex 10.9602 10.9602 6.2
      vertex 9.11067 12.5398 30.25
      vertex 10.9602 10.9602 30.25
    endloop
  endfacet
  facet normal 0.649448 0.760406 0
    outer loop
      vertex 9.11067 12.5398 30.25
      vertex 10.9602 10.9602 6.2
      vertex 9.11067 12.5398 6.2
    endloop
  endfacet
  facet normal -0.85264 0.522498 0
    outer loop
      vertex -13.8106 7.03685 6.2
      vertex -12.5398 9.11067 30.25
      vertex -12.5398 9.11067 6.2
    endloop
  endfacet
  facet normal -0.85264 0.522498 0
    outer loop
      vertex -12.5398 9.11067 30.25
      vertex -13.8106 7.03685 6.2
      vertex -13.8106 7.03685 30.25
    endloop
  endfacet
  facet normal -0.760406 0.649448 0
    outer loop
      vertex -12.5398 9.11067 6.2
      vertex -10.9602 10.9602 30.25
      vertex -10.9602 10.9602 6.2
    endloop
  endfacet
  facet normal -0.760406 0.649448 0
    outer loop
      vertex -10.9602 10.9602 30.25
      vertex -12.5398 9.11067 6.2
      vertex -12.5398 9.11067 30.25
    endloop
  endfacet
  facet normal -0.97237 0.233445 0
    outer loop
      vertex -15.3092 2.42473 6.2
      vertex -14.7414 4.78976 30.25
      vertex -14.7414 4.78976 6.2
    endloop
  endfacet
  facet normal -0.97237 0.233445 0
    outer loop
      vertex -14.7414 4.78976 30.25
      vertex -15.3092 2.42473 6.2
      vertex -15.3092 2.42473 30.25
    endloop
  endfacet
  facet normal 0 0 1
    outer loop
      vertex 14.3 0 30.25
      vertex 15.5 0 30.25
      vertex 15.3092 2.42473 30.25
    endloop
  endfacet
  facet normal 0 0 1
    outer loop
      vertex 14.1239 2.23701 30.25
      vertex 15.3092 2.42473 30.25
      vertex 14.7414 4.78976 30.25
    endloop
  endfacet
  facet normal 0 0 1
    outer loop
      vertex 15.5 0 30.25
      vertex 14.3 0 30.25
      vertex 15.3092 -2.42473 30.25
    endloop
  endfacet
  facet normal -0 0 1
    outer loop
      vertex 14.1239 -2.23701 30.25
      vertex 15.3092 -2.42473 30.25
      vertex 14.3 0 30.25
    endloop
  endfacet
  facet normal 0 0 1
    outer loop
      vertex 15.3092 2.42473 30.25
      vertex 14.1239 2.23701 30.25
      vertex 14.3 0 30.25
    endloop
  endfacet
  facet normal 0 0 1
    outer loop
      vertex 13.6001 4.41894 30.25
      vertex 14.7414 4.78976 30.25
      vertex 13.8106 7.03685 30.25
    endloop
  endfacet
  facet normal 0 0 1
    outer loop
      vertex 14.7414 4.78976 30.25
      vertex 13.6001 4.41894 30.25
      vertex 14.1239 2.23701 30.25
    endloop
  endfacet
  facet normal 0 0 1
    outer loop
      vertex 13.8106 7.03685 30.25
      vertex 12.7414 6.49206 30.25
      vertex 13.6001 4.41894 30.25
    endloop
  endfacet
  facet normal 0 0 1
    outer loop
      vertex 12.5398 9.11067 30.25
      vertex 12.7414 6.49206 30.25
      vertex 13.8106 7.03685 30.25
    endloop
  endfacet
  facet normal 0 0 1
    outer loop
      vertex 12.5398 9.11067 30.25
      vertex 11.5689 8.40533 30.25
      vertex 12.7414 6.49206 30.25
    endloop
  endfacet
  facet normal 0 0 1
    outer loop
      vertex 10.9602 10.9602 30.25
      vertex 11.5689 8.40533 30.25
      vertex 12.5398 9.11067 30.25
    endloop
  endfacet
  facet normal 0 0 1
    outer loop
      vertex 10.9602 10.9602 30.25
      vertex 10.1116 10.1116 30.25
      vertex 11.5689 8.40533 30.25
    endloop
  endfacet
  facet normal 0 0 1
    outer loop
      vertex 9.11067 12.5398 30.25
      vertex 10.1116 10.1116 30.25
      vertex 10.9602 10.9602 30.25
    endloop
  endfacet
  facet normal 0 0 1
    outer loop
      vertex 9.11067 12.5398 30.25
      vertex 8.40533 11.5689 30.25
      vertex 10.1116 10.1116 30.25
    endloop
  endfacet
  facet normal 0 0 1
    outer loop
      vertex 7.03685 13.8106 30.25
      vertex 8.40533 11.5689 30.25
      vertex 9.11067 12.5398 30.25
    endloop
  endfacet
  facet normal 0 0 1
    outer loop
      vertex 7.03685 13.8106 30.25
      vertex 6.49206 12.7414 30.25
      vertex 8.40533 11.5689 30.25
    endloop
  endfacet
  facet normal 0 0 1
    outer loop
      vertex 4.78976 14.7414 30.25
      vertex 6.49206 12.7414 30.25
      vertex 7.03685 13.8106 30.25
    endloop
  endfacet
  facet normal 0 0 1
    outer loop
      vertex 4.78976 14.7414 30.25
      vertex 4.41894 13.6001 30.25
      vertex 6.49206 12.7414 30.25
    endloop
  endfacet
  facet normal 0 0 1
    outer loop
      vertex 2.42473 15.3092 30.25
      vertex 4.41894 13.6001 30.25
      vertex 4.78976 14.7414 30.25
    endloop
  endfacet
  facet normal 0 0 1
    outer loop
      vertex 2.42473 15.3092 30.25
      vertex 2.23701 14.1239 30.25
      vertex 4.41894 13.6001 30.25
    endloop
  endfacet
  facet normal 0 0 1
    outer loop
      vertex 0 15.5 30.25
      vertex 2.23701 14.1239 30.25
      vertex 2.42473 15.3092 30.25
    endloop
  endfacet
  facet normal 0 0 1
    outer loop
      vertex 0 15.5 30.25
      vertex 0 14.3 30.25
      vertex 2.23701 14.1239 30.25
    endloop
  endfacet
  facet normal 0 0 1
    outer loop
      vertex 0 15.5 30.25
      vertex -2.23701 14.1239 30.25
      vertex 0 14.3 30.25
    endloop
  endfacet
  facet normal -0 0 1
    outer loop
      vertex -2.42473 15.3092 30.25
      vertex -2.23701 14.1239 30.25
      vertex 0 15.5 30.25
    endloop
  endfacet
  facet normal 0 0 1
    outer loop
      vertex -2.42473 15.3092 30.25
      vertex -4.41894 13.6001 30.25
      vertex -2.23701 14.1239 30.25
    endloop
  endfacet
  facet normal -0 0 1
    outer loop
      vertex -4.78976 14.7414 30.25
      vertex -4.41894 13.6001 30.25
      vertex -2.42473 15.3092 30.25
    endloop
  endfacet
  facet normal 0 0 1
    outer loop
      vertex -4.78976 14.7414 30.25
      vertex -6.49206 12.7414 30.25
      vertex -4.41894 13.6001 30.25
    endloop
  endfacet
  facet normal -0 0 1
    outer loop
      vertex -7.03685 13.8106 30.25
      vertex -6.49206 12.7414 30.25
      vertex -4.78976 14.7414 30.25
    endloop
  endfacet
  facet normal 0 0 1
    outer loop
      vertex -7.03685 13.8106 30.25
      vertex -8.40533 11.5689 30.25
      vertex -6.49206 12.7414 30.25
    endloop
  endfacet
  facet normal -0 0 1
    outer loop
      vertex -9.11067 12.5398 30.25
      vertex -8.40533 11.5689 30.25
      vertex -7.03685 13.8106 30.25
    endloop
  endfacet
  facet normal 0 0 1
    outer loop
      vertex -9.11067 12.5398 30.25
      vertex -10.1116 10.1116 30.25
      vertex -8.40533 11.5689 30.25
    endloop
  endfacet
  facet normal -0 0 1
    outer loop
      vertex -10.9602 10.9602 30.25
      vertex -10.1116 10.1116 30.25
      vertex -9.11067 12.5398 30.25
    endloop
  endfacet
  facet normal 0 0 1
    outer loop
      vertex -10.9602 10.9602 30.25
      vertex -11.5689 8.40533 30.25
      vertex -10.1116 10.1116 30.25
    endloop
  endfacet
  facet normal -0 0 1
    outer loop
      vertex -12.5398 9.11067 30.25
      vertex -11.5689 8.40533 30.25
      vertex -10.9602 10.9602 30.25
    endloop
  endfacet
  facet normal 0 0 1
    outer loop
      vertex -12.5398 9.11067 30.25
      vertex -12.7414 6.49206 30.25
      vertex -11.5689 8.40533 30.25
    endloop
  endfacet
  facet normal -0 0 1
    outer loop
      vertex -13.8106 7.03685 30.25
      vertex -12.7414 6.49206 30.25
      vertex -12.5398 9.11067 30.25
    endloop
  endfacet
  facet normal 0 0 1
    outer loop
      vertex -12.7414 6.49206 30.25
      vertex -13.8106 7.03685 30.25
      vertex -13.6001 4.41894 30.25
    endloop
  endfacet
  facet normal -0 0 1
    outer loop
      vertex -14.7414 4.78976 30.25
      vertex -13.6001 4.41894 30.25
      vertex -13.8106 7.03685 30.25
    endloop
  endfacet
  facet normal 0 0 1
    outer loop
      vertex -13.6001 4.41894 30.25
      vertex -14.7414 4.78976 30.25
      vertex -14.1239 2.23701 30.25
    endloop
  endfacet
  facet normal -0 0 1
    outer loop
      vertex -15.3092 2.42473 30.25
      vertex -14.1239 2.23701 30.25
      vertex -14.7414 4.78976 30.25
    endloop
  endfacet
  facet normal 0 0 1
    outer loop
      vertex 15.3092 -2.42473 30.25
      vertex 14.1239 -2.23701 30.25
      vertex 14.7414 -4.78976 30.25
    endloop
  endfacet
  facet normal -0 0 1
    outer loop
      vertex 13.6001 -4.41894 30.25
      vertex 14.7414 -4.78976 30.25
      vertex 14.1239 -2.23701 30.25
    endloop
  endfacet
  facet normal 0 0 1
    outer loop
      vertex 14.7414 -4.78976 30.25
      vertex 13.6001 -4.41894 30.25
      vertex 13.8106 -7.03685 30.25
    endloop
  endfacet
  facet normal -0 0 1
    outer loop
      vertex 12.7414 -6.49206 30.25
      vertex 13.8106 -7.03685 30.25
      vertex 13.6001 -4.41894 30.25
    endloop
  endfacet
  facet normal 0 0 1
    outer loop
      vertex 12.7414 -6.49206 30.25
      vertex 12.5398 -9.11067 30.25
      vertex 13.8106 -7.03685 30.25
    endloop
  endfacet
  facet normal -0 0 1
    outer loop
      vertex 11.5689 -8.40533 30.25
      vertex 12.5398 -9.11067 30.25
      vertex 12.7414 -6.49206 30.25
    endloop
  endfacet
  facet normal 0 0 1
    outer loop
      vertex 11.5689 -8.40533 30.25
      vertex 10.9602 -10.9602 30.25
      vertex 12.5398 -9.11067 30.25
    endloop
  endfacet
  facet normal -0 0 1
    outer loop
      vertex 10.1116 -10.1116 30.25
      vertex 10.9602 -10.9602 30.25
      vertex 11.5689 -8.40533 30.25
    endloop
  endfacet
  facet normal 0 0 1
    outer loop
      vertex 10.1116 -10.1116 30.25
      vertex 9.11067 -12.5398 30.25
      vertex 10.9602 -10.9602 30.25
    endloop
  endfacet
  facet normal -0 0 1
    outer loop
      vertex 8.40533 -11.5689 30.25
      vertex 9.11067 -12.5398 30.25
      vertex 10.1116 -10.1116 30.25
    endloop
  endfacet
  facet normal 0 0 1
    outer loop
      vertex 8.40533 -11.5689 30.25
      vertex 7.03685 -13.8106 30.25
      vertex 9.11067 -12.5398 30.25
    endloop
  endfacet
  facet normal -0 0 1
    outer loop
      vertex 6.49206 -12.7414 30.25
      vertex 7.03685 -13.8106 30.25
      vertex 8.40533 -11.5689 30.25
    endloop
  endfacet
  facet normal 0 0 1
    outer loop
      vertex 6.49206 -12.7414 30.25
      vertex 4.78976 -14.7414 30.25
      vertex 7.03685 -13.8106 30.25
    endloop
  endfacet
  facet normal -0 0 1
    outer loop
      vertex 4.41894 -13.6001 30.25
      vertex 4.78976 -14.7414 30.25
      vertex 6.49206 -12.7414 30.25
    endloop
  endfacet
  facet normal 0 0 1
    outer loop
      vertex 4.41894 -13.6001 30.25
      vertex 2.42473 -15.3092 30.25
      vertex 4.78976 -14.7414 30.25
    endloop
  endfacet
  facet normal -0 0 1
    outer loop
      vertex 2.23701 -14.1239 30.25
      vertex 2.42473 -15.3092 30.25
      vertex 4.41894 -13.6001 30.25
    endloop
  endfacet
  facet normal -0 0 1
    outer loop
      vertex 0 -14.3 30.25
      vertex 2.42473 -15.3092 30.25
      vertex 2.23701 -14.1239 30.25
    endloop
  endfacet
  facet normal 0 0 1
    outer loop
      vertex 0 -14.3 30.25
      vertex 0 -15.5 30.25
      vertex 2.42473 -15.3092 30.25
    endloop
  endfacet
  facet normal 0 0 1
    outer loop
      vertex -2.23701 -14.1239 30.25
      vertex 0 -15.5 30.25
      vertex 0 -14.3 30.25
    endloop
  endfacet
  facet normal 0 0 1
    outer loop
      vertex -2.23701 -14.1239 30.25
      vertex -2.42473 -15.3092 30.25
      vertex 0 -15.5 30.25
    endloop
  endfacet
  facet normal 0 0 1
    outer loop
      vertex -4.41894 -13.6001 30.25
      vertex -2.42473 -15.3092 30.25
      vertex -2.23701 -14.1239 30.25
    endloop
  endfacet
  facet normal 0 0 1
    outer loop
      vertex -4.41894 -13.6001 30.25
      vertex -4.78976 -14.7414 30.25
      vertex -2.42473 -15.3092 30.25
    endloop
  endfacet
  facet normal 0 0 1
    outer loop
      vertex -6.49206 -12.7414 30.25
      vertex -4.78976 -14.7414 30.25
      vertex -4.41894 -13.6001 30.25
    endloop
  endfacet
  facet normal 0 0 1
    outer loop
      vertex -6.49206 -12.7414 30.25
      vertex -7.03685 -13.8106 30.25
      vertex -4.78976 -14.7414 30.25
    endloop
  endfacet
  facet normal 0 0 1
    outer loop
      vertex -8.40533 -11.5689 30.25
      vertex -7.03685 -13.8106 30.25
      vertex -6.49206 -12.7414 30.25
    endloop
  endfacet
  facet normal 0 0 1
    outer loop
      vertex -8.40533 -11.5689 30.25
      vertex -9.11067 -12.5398 30.25
      vertex -7.03685 -13.8106 30.25
    endloop
  endfacet
  facet normal 0 0 1
    outer loop
      vertex -10.1116 -10.1116 30.25
      vertex -9.11067 -12.5398 30.25
      vertex -8.40533 -11.5689 30.25
    endloop
  endfacet
  facet normal 0 0 1
    outer loop
      vertex -10.1116 -10.1116 30.25
      vertex -10.9602 -10.9602 30.25
      vertex -9.11067 -12.5398 30.25
    endloop
  endfacet
  facet normal 0 0 1
    outer loop
      vertex -11.5689 -8.40533 30.25
      vertex -10.9602 -10.9602 30.25
      vertex -10.1116 -10.1116 30.25
    endloop
  endfacet
  facet normal 0 0 1
    outer loop
      vertex -11.5689 -8.40533 30.25
      vertex -12.5398 -9.11067 30.25
      vertex -10.9602 -10.9602 30.25
    endloop
  endfacet
  facet normal 0 0 1
    outer loop
      vertex -12.7414 -6.49206 30.25
      vertex -12.5398 -9.11067 30.25
      vertex -11.5689 -8.40533 30.25
    endloop
  endfacet
  facet normal 0 0 1
    outer loop
      vertex -13.8106 -7.03685 30.25
      vertex -12.7414 -6.49206 30.25
      vertex -13.6001 -4.41894 30.25
    endloop
  endfacet
  facet normal 0 0 1
    outer loop
      vertex -12.7414 -6.49206 30.25
      vertex -13.8106 -7.03685 30.25
      vertex -12.5398 -9.11067 30.25
    endloop
  endfacet
  facet normal 0 0 1
    outer loop
      vertex -14.7414 -4.78976 30.25
      vertex -13.6001 -4.41894 30.25
      vertex -14.1239 -2.23701 30.25
    endloop
  endfacet
  facet normal 0 0 1
    outer loop
      vertex -15.3092 -2.42473 30.25
      vertex -14.1239 -2.23701 30.25
      vertex -14.3 0 30.25
    endloop
  endfacet
  facet normal 0 0 1
    outer loop
      vertex -14.1239 2.23701 30.25
      vertex -15.3092 2.42473 30.25
      vertex -14.3 0 30.25
    endloop
  endfacet
  facet normal 0 0 1
    outer loop
      vertex -13.6001 -4.41894 30.25
      vertex -14.7414 -4.78976 30.25
      vertex -13.8106 -7.03685 30.25
    endloop
  endfacet
  facet normal 0 0 1
    outer loop
      vertex -15.5 0 30.25
      vertex -14.3 0 30.25
      vertex -15.3092 2.42473 30.25
    endloop
  endfacet
  facet normal 0 0 1
    outer loop
      vertex -14.1239 -2.23701 30.25
      vertex -15.3092 -2.42473 30.25
      vertex -14.7414 -4.78976 30.25
    endloop
  endfacet
  facet normal 0 0 1
    outer loop
      vertex -14.3 0 30.25
      vertex -15.5 0 30.25
      vertex -15.3092 -2.42473 30.25
    endloop
  endfacet
  facet normal -0.522498 0.85264 0
    outer loop
      vertex -7.03685 13.8106 6.2
      vertex -9.11067 12.5398 30.25
      vertex -7.03685 13.8106 30.25
    endloop
  endfacet
  facet normal -0.522498 0.85264 0
    outer loop
      vertex -9.11067 12.5398 30.25
      vertex -7.03685 13.8106 6.2
      vertex -9.11067 12.5398 6.2
    endloop
  endfacet
  facet normal -0.0784593 0.996917 0
    outer loop
      vertex 0 15.5 6.2
      vertex -2.42473 15.3092 30.25
      vertex 0 15.5 30.25
    endloop
  endfacet
  facet normal -0.0784593 0.996917 0
    outer loop
      vertex -2.42473 15.3092 30.25
      vertex 0 15.5 6.2
      vertex -2.42473 15.3092 6.2
    endloop
  endfacet
  facet normal 0.923879 -0.382684 0
    outer loop
      vertex 13.8106 -7.03685 30.25
      vertex 14.7414 -4.78976 6.2
      vertex 14.7414 -4.78976 30.25
    endloop
  endfacet
  facet normal 0.923879 -0.382684 0
    outer loop
      vertex 14.7414 -4.78976 6.2
      vertex 13.8106 -7.03685 30.25
      vertex 13.8106 -7.03685 6.2
    endloop
  endfacet
  facet normal 0.0784593 -0.996917 0
    outer loop
      vertex 0 -15.5 6.2
      vertex 2.42473 -15.3092 30.25
      vertex 0 -15.5 30.25
    endloop
  endfacet
  facet normal 0.0784593 -0.996917 0
    outer loop
      vertex 2.42473 -15.3092 30.25
      vertex 0 -15.5 6.2
      vertex 2.42473 -15.3092 6.2
    endloop
  endfacet
  facet normal -0.649448 -0.760406 0
    outer loop
      vertex -10.9602 -10.9602 6.2
      vertex -9.11067 -12.5398 30.25
      vertex -10.9602 -10.9602 30.25
    endloop
  endfacet
  facet normal -0.649448 -0.760406 -0
    outer loop
      vertex -9.11067 -12.5398 30.25
      vertex -10.9602 -10.9602 6.2
      vertex -9.11067 -12.5398 6.2
    endloop
  endfacet
  facet normal -0.233445 -0.97237 0
    outer loop
      vertex -4.78976 -14.7414 6.2
      vertex -2.42473 -15.3092 30.25
      vertex -4.78976 -14.7414 30.25
    endloop
  endfacet
  facet normal -0.233445 -0.97237 -0
    outer loop
      vertex -2.42473 -15.3092 30.25
      vertex -4.78976 -14.7414 6.2
      vertex -2.42473 -15.3092 6.2
    endloop
  endfacet
  facet normal -0.760406 -0.649448 0
    outer loop
      vertex -10.9602 -10.9602 6.2
      vertex -12.5398 -9.11067 30.25
      vertex -12.5398 -9.11067 6.2
    endloop
  endfacet
  facet normal -0.760406 -0.649448 0
    outer loop
      vertex -12.5398 -9.11067 30.25
      vertex -10.9602 -10.9602 6.2
      vertex -10.9602 -10.9602 30.25
    endloop
  endfacet
  facet normal -0.996917 -0.0784593 0
    outer loop
      vertex -15.3092 -2.42473 6.2
      vertex -15.5 0 30.25
      vertex -15.5 0 6.2
    endloop
  endfacet
  facet normal -0.996917 -0.0784593 0
    outer loop
      vertex -15.5 0 30.25
      vertex -15.3092 -2.42473 6.2
      vertex -15.3092 -2.42473 30.25
    endloop
  endfacet
  facet normal -0.923879 0.382684 0
    outer loop
      vertex -14.7414 4.78976 6.2
      vertex -13.8106 7.03685 30.25
      vertex -13.8106 7.03685 6.2
    endloop
  endfacet
  facet normal -0.923879 0.382684 0
    outer loop
      vertex -13.8106 7.03685 30.25
      vertex -14.7414 4.78976 6.2
      vertex -14.7414 4.78976 30.25
    endloop
  endfacet
  facet normal -0.382684 0.923879 0
    outer loop
      vertex -4.78976 14.7414 6.2
      vertex -7.03685 13.8106 30.25
      vertex -4.78976 14.7414 30.25
    endloop
  endfacet
  facet normal -0.382684 0.923879 0
    outer loop
      vertex -7.03685 13.8106 30.25
      vertex -4.78976 14.7414 6.2
      vertex -7.03685 13.8106 6.2
    endloop
  endfacet
  facet normal 0.996917 -0.0784593 0
    outer loop
      vertex 15.3092 -2.42473 30.25
      vertex 15.5 0 6.2
      vertex 15.5 0 30.25
    endloop
  endfacet
  facet normal 0.996917 -0.0784593 0
    outer loop
      vertex 15.5 0 6.2
      vertex 15.3092 -2.42473 30.25
      vertex 15.3092 -2.42473 6.2
    endloop
  endfacet
  facet normal 0.233445 -0.97237 0
    outer loop
      vertex 2.42473 -15.3092 6.2
      vertex 4.78976 -14.7414 30.25
      vertex 2.42473 -15.3092 30.25
    endloop
  endfacet
  facet normal 0.233445 -0.97237 0
    outer loop
      vertex 4.78976 -14.7414 30.25
      vertex 2.42473 -15.3092 6.2
      vertex 4.78976 -14.7414 6.2
    endloop
  endfacet
  facet normal 0.382684 -0.923879 0
    outer loop
      vertex 4.78976 -14.7414 6.2
      vertex 7.03685 -13.8106 30.25
      vertex 4.78976 -14.7414 30.25
    endloop
  endfacet
  facet normal 0.382684 -0.923879 0
    outer loop
      vertex 7.03685 -13.8106 30.25
      vertex 4.78976 -14.7414 6.2
      vertex 7.03685 -13.8106 6.2
    endloop
  endfacet
  facet normal 0.522498 -0.85264 0
    outer loop
      vertex 7.03685 -13.8106 6.2
      vertex 9.11067 -12.5398 30.25
      vertex 7.03685 -13.8106 30.25
    endloop
  endfacet
  facet normal 0.522498 -0.85264 0
    outer loop
      vertex 9.11067 -12.5398 30.25
      vertex 7.03685 -13.8106 6.2
      vertex 9.11067 -12.5398 6.2
    endloop
  endfacet
  facet normal 0.760406 -0.649448 0
    outer loop
      vertex 10.9602 -10.9602 30.25
      vertex 12.5398 -9.11067 6.2
      vertex 12.5398 -9.11067 30.25
    endloop
  endfacet
  facet normal 0.760406 -0.649448 0
    outer loop
      vertex 12.5398 -9.11067 6.2
      vertex 10.9602 -10.9602 30.25
      vertex 10.9602 -10.9602 6.2
    endloop
  endfacet
  facet normal 0.97237 -0.233445 0
    outer loop
      vertex 14.7414 -4.78976 30.25
      vertex 15.3092 -2.42473 6.2
      vertex 15.3092 -2.42473 30.25
    endloop
  endfacet
  facet normal 0.97237 -0.233445 0
    outer loop
      vertex 15.3092 -2.42473 6.2
      vertex 14.7414 -4.78976 30.25
      vertex 14.7414 -4.78976 6.2
    endloop
  endfacet
  facet normal -0.522498 -0.85264 0
    outer loop
      vertex -9.11067 -12.5398 6.2
      vertex -7.03685 -13.8106 30.25
      vertex -9.11067 -12.5398 30.25
    endloop
  endfacet
  facet normal -0.522498 -0.85264 -0
    outer loop
      vertex -7.03685 -13.8106 30.25
      vertex -9.11067 -12.5398 6.2
      vertex -7.03685 -13.8106 6.2
    endloop
  endfacet
  facet normal -0.382684 -0.923879 0
    outer loop
      vertex -7.03685 -13.8106 6.2
      vertex -4.78976 -14.7414 30.25
      vertex -7.03685 -13.8106 30.25
    endloop
  endfacet
  facet normal -0.382684 -0.923879 -0
    outer loop
      vertex -4.78976 -14.7414 30.25
      vertex -7.03685 -13.8106 6.2
      vertex -4.78976 -14.7414 6.2
    endloop
  endfacet
  facet normal -0.0784593 -0.996917 0
    outer loop
      vertex -2.42473 -15.3092 6.2
      vertex 0 -15.5 30.25
      vertex -2.42473 -15.3092 30.25
    endloop
  endfacet
  facet normal -0.0784593 -0.996917 -0
    outer loop
      vertex 0 -15.5 30.25
      vertex -2.42473 -15.3092 6.2
      vertex 0 -15.5 6.2
    endloop
  endfacet
  facet normal -0.923879 -0.382684 0
    outer loop
      vertex -13.8106 -7.03685 6.2
      vertex -14.7414 -4.78976 30.25
      vertex -14.7414 -4.78976 6.2
    endloop
  endfacet
  facet normal -0.923879 -0.382684 0
    outer loop
      vertex -14.7414 -4.78976 30.25
      vertex -13.8106 -7.03685 6.2
      vertex -13.8106 -7.03685 30.25
    endloop
  endfacet
  facet normal -0.97237 -0.233445 0
    outer loop
      vertex -14.7414 -4.78976 6.2
      vertex -15.3092 -2.42473 30.25
      vertex -15.3092 -2.42473 6.2
    endloop
  endfacet
  facet normal -0.97237 -0.233445 0
    outer loop
      vertex -15.3092 -2.42473 30.25
      vertex -14.7414 -4.78976 6.2
      vertex -14.7414 -4.78976 30.25
    endloop
  endfacet
  facet normal 0.522498 0.85264 -0
    outer loop
      vertex 9.11067 12.5398 6.2
      vertex 7.03685 13.8106 30.25
      vertex 9.11067 12.5398 30.25
    endloop
  endfacet
  facet normal 0.522498 0.85264 0
    outer loop
      vertex 7.03685 13.8106 30.25
      vertex 9.11067 12.5398 6.2
      vertex 7.03685 13.8106 6.2
    endloop
  endfacet
  facet normal 0.85264 -0.522498 0
    outer loop
      vertex 12.5398 -9.11067 30.25
      vertex 13.8106 -7.03685 6.2
      vertex 13.8106 -7.03685 30.25
    endloop
  endfacet
  facet normal 0.85264 -0.522498 0
    outer loop
      vertex 13.8106 -7.03685 6.2
      vertex 12.5398 -9.11067 30.25
      vertex 12.5398 -9.11067 6.2
    endloop
  endfacet
  facet normal -0.85264 -0.522498 0
    outer loop
      vertex -12.5398 -9.11067 6.2
      vertex -13.8106 -7.03685 30.25
      vertex -13.8106 -7.03685 6.2
    endloop
  endfacet
  facet normal -0.85264 -0.522498 0
    outer loop
      vertex -13.8106 -7.03685 30.25
      vertex -12.5398 -9.11067 6.2
      vertex -12.5398 -9.11067 30.25
    endloop
  endfacet
  facet normal -0.996917 -0.0784592 0
    outer loop
      vertex 14.3 0 5
      vertex 14.1239 2.23701 30.25
      vertex 14.1239 2.23701 5
    endloop
  endfacet
  facet normal -0.996917 -0.0784592 0
    outer loop
      vertex 14.1239 2.23701 30.25
      vertex 14.3 0 5
      vertex 14.3 0 30.25
    endloop
  endfacet
  facet normal 0.996917 -0.0784592 0
    outer loop
      vertex -14.3 0 30.25
      vertex -14.1239 2.23701 5
      vertex -14.1239 2.23701 30.25
    endloop
  endfacet
  facet normal 0.996917 -0.0784592 0
    outer loop
      vertex -14.1239 2.23701 5
      vertex -14.3 0 30.25
      vertex -14.3 0 5
    endloop
  endfacet
  facet normal -0.0784592 -0.996917 0
    outer loop
      vertex 0 14.3 5
      vertex 2.23701 14.1239 30.25
      vertex 0 14.3 30.25
    endloop
  endfacet
  facet normal -0.0784592 -0.996917 -0
    outer loop
      vertex 2.23701 14.1239 30.25
      vertex 0 14.3 5
      vertex 2.23701 14.1239 5
    endloop
  endfacet
  facet normal -0.760406 -0.649448 0
    outer loop
      vertex 11.5689 8.40533 5
      vertex 10.1116 10.1116 30.25
      vertex 10.1116 10.1116 5
    endloop
  endfacet
  facet normal -0.760406 -0.649448 0
    outer loop
      vertex 10.1116 10.1116 30.25
      vertex 11.5689 8.40533 5
      vertex 11.5689 8.40533 30.25
    endloop
  endfacet
  facet normal 0.649448 -0.760406 0
    outer loop
      vertex -10.1116 10.1116 5
      vertex -8.40533 11.5689 30.25
      vertex -10.1116 10.1116 30.25
    endloop
  endfacet
  facet normal 0.649448 -0.760406 0
    outer loop
      vertex -8.40533 11.5689 30.25
      vertex -10.1116 10.1116 5
      vertex -8.40533 11.5689 5
    endloop
  endfacet
  facet normal 0.233445 -0.97237 0
    outer loop
      vertex -4.41894 13.6001 5
      vertex -2.23701 14.1239 30.25
      vertex -4.41894 13.6001 30.25
    endloop
  endfacet
  facet normal 0.233445 -0.97237 0
    outer loop
      vertex -2.23701 14.1239 30.25
      vertex -4.41894 13.6001 5
      vertex -2.23701 14.1239 5
    endloop
  endfacet
  facet normal -0.92388 -0.382684 0
    outer loop
      vertex 13.6001 4.41894 5
      vertex 12.7414 6.49206 30.25
      vertex 12.7414 6.49206 5
    endloop
  endfacet
  facet normal -0.92388 -0.382684 0
    outer loop
      vertex 12.7414 6.49206 30.25
      vertex 13.6001 4.41894 5
      vertex 13.6001 4.41894 30.25
    endloop
  endfacet
  facet normal -0.97237 -0.233445 0
    outer loop
      vertex 14.1239 2.23701 5
      vertex 13.6001 4.41894 30.25
      vertex 13.6001 4.41894 5
    endloop
  endfacet
  facet normal -0.97237 -0.233445 0
    outer loop
      vertex 13.6001 4.41894 30.25
      vertex 14.1239 2.23701 5
      vertex 14.1239 2.23701 30.25
    endloop
  endfacet
  facet normal -0.85264 -0.522499 0
    outer loop
      vertex 12.7414 6.49206 5
      vertex 11.5689 8.40533 30.25
      vertex 11.5689 8.40533 5
    endloop
  endfacet
  facet normal -0.85264 -0.522499 0
    outer loop
      vertex 11.5689 8.40533 30.25
      vertex 12.7414 6.49206 5
      vertex 12.7414 6.49206 30.25
    endloop
  endfacet
  facet normal -0.382684 -0.92388 0
    outer loop
      vertex 4.41894 13.6001 5
      vertex 6.49206 12.7414 30.25
      vertex 4.41894 13.6001 30.25
    endloop
  endfacet
  facet normal -0.382684 -0.92388 -0
    outer loop
      vertex 6.49206 12.7414 30.25
      vertex 4.41894 13.6001 5
      vertex 6.49206 12.7414 5
    endloop
  endfacet
  facet normal -0.233445 -0.97237 0
    outer loop
      vertex 2.23701 14.1239 5
      vertex 4.41894 13.6001 30.25
      vertex 2.23701 14.1239 30.25
    endloop
  endfacet
  facet normal -0.233445 -0.97237 -0
    outer loop
      vertex 4.41894 13.6001 30.25
      vertex 2.23701 14.1239 5
      vertex 4.41894 13.6001 5
    endloop
  endfacet
  facet normal -0.522499 -0.85264 0
    outer loop
      vertex 6.49206 12.7414 5
      vertex 8.40533 11.5689 30.25
      vertex 6.49206 12.7414 30.25
    endloop
  endfacet
  facet normal -0.522499 -0.85264 -0
    outer loop
      vertex 8.40533 11.5689 30.25
      vertex 6.49206 12.7414 5
      vertex 8.40533 11.5689 5
    endloop
  endfacet
  facet normal 0.92388 -0.382684 0
    outer loop
      vertex -13.6001 4.41894 30.25
      vertex -12.7414 6.49206 5
      vertex -12.7414 6.49206 30.25
    endloop
  endfacet
  facet normal 0.92388 -0.382684 0
    outer loop
      vertex -12.7414 6.49206 5
      vertex -13.6001 4.41894 30.25
      vertex -13.6001 4.41894 5
    endloop
  endfacet
  facet normal 0.85264 -0.522499 0
    outer loop
      vertex -12.7414 6.49206 30.25
      vertex -11.5689 8.40533 5
      vertex -11.5689 8.40533 30.25
    endloop
  endfacet
  facet normal 0.85264 -0.522499 0
    outer loop
      vertex -11.5689 8.40533 5
      vertex -12.7414 6.49206 30.25
      vertex -12.7414 6.49206 5
    endloop
  endfacet
  facet normal 0.97237 -0.233445 0
    outer loop
      vertex -14.1239 2.23701 30.25
      vertex -13.6001 4.41894 5
      vertex -13.6001 4.41894 30.25
    endloop
  endfacet
  facet normal 0.97237 -0.233445 0
    outer loop
      vertex -13.6001 4.41894 5
      vertex -14.1239 2.23701 30.25
      vertex -14.1239 2.23701 5
    endloop
  endfacet
  facet normal 0.382684 -0.92388 0
    outer loop
      vertex -6.49206 12.7414 5
      vertex -4.41894 13.6001 30.25
      vertex -6.49206 12.7414 30.25
    endloop
  endfacet
  facet normal 0.382684 -0.92388 0
    outer loop
      vertex -4.41894 13.6001 30.25
      vertex -6.49206 12.7414 5
      vertex -4.41894 13.6001 5
    endloop
  endfacet
  facet normal 0.0784592 -0.996917 0
    outer loop
      vertex -2.23701 14.1239 5
      vertex 0 14.3 30.25
      vertex -2.23701 14.1239 30.25
    endloop
  endfacet
  facet normal 0.0784592 -0.996917 0
    outer loop
      vertex 0 14.3 30.25
      vertex -2.23701 14.1239 5
      vertex 0 14.3 5
    endloop
  endfacet
  facet normal -0.0784592 0.996917 0
    outer loop
      vertex 2.23701 -14.1239 5
      vertex 0 -14.3 30.25
      vertex 2.23701 -14.1239 30.25
    endloop
  endfacet
  facet normal -0.0784592 0.996917 0
    outer loop
      vertex 0 -14.3 30.25
      vertex 2.23701 -14.1239 5
      vertex 0 -14.3 5
    endloop
  endfacet
  facet normal -0.649448 0.760406 0
    outer loop
      vertex 10.1116 -10.1116 5
      vertex 8.40533 -11.5689 30.25
      vertex 10.1116 -10.1116 30.25
    endloop
  endfacet
  facet normal -0.649448 0.760406 0
    outer loop
      vertex 8.40533 -11.5689 30.25
      vertex 10.1116 -10.1116 5
      vertex 8.40533 -11.5689 5
    endloop
  endfacet
  facet normal -0.382684 0.92388 0
    outer loop
      vertex 6.49206 -12.7414 5
      vertex 4.41894 -13.6001 30.25
      vertex 6.49206 -12.7414 30.25
    endloop
  endfacet
  facet normal -0.382684 0.92388 0
    outer loop
      vertex 4.41894 -13.6001 30.25
      vertex 6.49206 -12.7414 5
      vertex 4.41894 -13.6001 5
    endloop
  endfacet
  facet normal -0.97237 0.233445 0
    outer loop
      vertex 13.6001 -4.41894 5
      vertex 14.1239 -2.23701 30.25
      vertex 14.1239 -2.23701 5
    endloop
  endfacet
  facet normal -0.97237 0.233445 0
    outer loop
      vertex 14.1239 -2.23701 30.25
      vertex 13.6001 -4.41894 5
      vertex 13.6001 -4.41894 30.25
    endloop
  endfacet
  facet normal 0.382684 0.92388 -0
    outer loop
      vertex -4.41894 -13.6001 5
      vertex -6.49206 -12.7414 30.25
      vertex -4.41894 -13.6001 30.25
    endloop
  endfacet
  facet normal 0.382684 0.92388 0
    outer loop
      vertex -6.49206 -12.7414 30.25
      vertex -4.41894 -13.6001 5
      vertex -6.49206 -12.7414 5
    endloop
  endfacet
  facet normal 0.233445 0.97237 -0
    outer loop
      vertex -2.23701 -14.1239 5
      vertex -4.41894 -13.6001 30.25
      vertex -2.23701 -14.1239 30.25
    endloop
  endfacet
  facet normal 0.233445 0.97237 0
    outer loop
      vertex -4.41894 -13.6001 30.25
      vertex -2.23701 -14.1239 5
      vertex -4.41894 -13.6001 5
    endloop
  endfacet
  facet normal 0.92388 0.382684 0
    outer loop
      vertex -12.7414 -6.49206 30.25
      vertex -13.6001 -4.41894 5
      vertex -13.6001 -4.41894 30.25
    endloop
  endfacet
  facet normal 0.92388 0.382684 0
    outer loop
      vertex -13.6001 -4.41894 5
      vertex -12.7414 -6.49206 30.25
      vertex -12.7414 -6.49206 5
    endloop
  endfacet
  facet normal 0.85264 0.522499 0
    outer loop
      vertex -11.5689 -8.40533 30.25
      vertex -12.7414 -6.49206 5
      vertex -12.7414 -6.49206 30.25
    endloop
  endfacet
  facet normal 0.85264 0.522499 0
    outer loop
      vertex -12.7414 -6.49206 5
      vertex -11.5689 -8.40533 30.25
      vertex -11.5689 -8.40533 5
    endloop
  endfacet
  facet normal 0.996917 0.0784592 0
    outer loop
      vertex -14.1239 -2.23701 30.25
      vertex -14.3 0 5
      vertex -14.3 0 30.25
    endloop
  endfacet
  facet normal 0.996917 0.0784592 0
    outer loop
      vertex -14.3 0 5
      vertex -14.1239 -2.23701 30.25
      vertex -14.1239 -2.23701 5
    endloop
  endfacet
  facet normal -0.649448 -0.760406 0
    outer loop
      vertex 8.40533 11.5689 5
      vertex 10.1116 10.1116 30.25
      vertex 8.40533 11.5689 30.25
    endloop
  endfacet
  facet normal -0.649448 -0.760406 -0
    outer loop
      vertex 10.1116 10.1116 30.25
      vertex 8.40533 11.5689 5
      vertex 10.1116 10.1116 5
    endloop
  endfacet
  facet normal -0.996917 0.0784592 0
    outer loop
      vertex 14.1239 -2.23701 5
      vertex 14.3 0 30.25
      vertex 14.3 0 5
    endloop
  endfacet
  facet normal -0.996917 0.0784592 0
    outer loop
      vertex 14.3 0 30.25
      vertex 14.1239 -2.23701 5
      vertex 14.1239 -2.23701 30.25
    endloop
  endfacet
  facet normal -0.233445 0.97237 0
    outer loop
      vertex 4.41894 -13.6001 5
      vertex 2.23701 -14.1239 30.25
      vertex 4.41894 -13.6001 30.25
    endloop
  endfacet
  facet normal -0.233445 0.97237 0
    outer loop
      vertex 2.23701 -14.1239 30.25
      vertex 4.41894 -13.6001 5
      vertex 2.23701 -14.1239 5
    endloop
  endfacet
  facet normal -0.522499 0.85264 0
    outer loop
      vertex 8.40533 -11.5689 5
      vertex 6.49206 -12.7414 30.25
      vertex 8.40533 -11.5689 30.25
    endloop
  endfacet
  facet normal -0.522499 0.85264 0
    outer loop
      vertex 6.49206 -12.7414 30.25
      vertex 8.40533 -11.5689 5
      vertex 6.49206 -12.7414 5
    endloop
  endfacet
  facet normal -0.92388 0.382684 0
    outer loop
      vertex 12.7414 -6.49206 5
      vertex 13.6001 -4.41894 30.25
      vertex 13.6001 -4.41894 5
    endloop
  endfacet
  facet normal -0.92388 0.382684 0
    outer loop
      vertex 13.6001 -4.41894 30.25
      vertex 12.7414 -6.49206 5
      vertex 12.7414 -6.49206 30.25
    endloop
  endfacet
  facet normal -0.760406 0.649448 0
    outer loop
      vertex 10.1116 -10.1116 5
      vertex 11.5689 -8.40533 30.25
      vertex 11.5689 -8.40533 5
    endloop
  endfacet
  facet normal -0.760406 0.649448 0
    outer loop
      vertex 11.5689 -8.40533 30.25
      vertex 10.1116 -10.1116 5
      vertex 10.1116 -10.1116 30.25
    endloop
  endfacet
  facet normal -0.85264 0.522499 0
    outer loop
      vertex 11.5689 -8.40533 5
      vertex 12.7414 -6.49206 30.25
      vertex 12.7414 -6.49206 5
    endloop
  endfacet
  facet normal -0.85264 0.522499 0
    outer loop
      vertex 12.7414 -6.49206 30.25
      vertex 11.5689 -8.40533 5
      vertex 11.5689 -8.40533 30.25
    endloop
  endfacet
  facet normal 0.649448 0.760406 -0
    outer loop
      vertex -8.40533 -11.5689 5
      vertex -10.1116 -10.1116 30.25
      vertex -8.40533 -11.5689 30.25
    endloop
  endfacet
  facet normal 0.649448 0.760406 0
    outer loop
      vertex -10.1116 -10.1116 30.25
      vertex -8.40533 -11.5689 5
      vertex -10.1116 -10.1116 5
    endloop
  endfacet
  facet normal 0.522499 0.85264 -0
    outer loop
      vertex -6.49206 -12.7414 5
      vertex -8.40533 -11.5689 30.25
      vertex -6.49206 -12.7414 30.25
    endloop
  endfacet
  facet normal 0.522499 0.85264 0
    outer loop
      vertex -8.40533 -11.5689 30.25
      vertex -6.49206 -12.7414 5
      vertex -8.40533 -11.5689 5
    endloop
  endfacet
  facet normal 0.0784592 0.996917 -0
    outer loop
      vertex 0 -14.3 5
      vertex -2.23701 -14.1239 30.25
      vertex 0 -14.3 30.25
    endloop
  endfacet
  facet normal 0.0784592 0.996917 0
    outer loop
      vertex -2.23701 -14.1239 30.25
      vertex 0 -14.3 5
      vertex -2.23701 -14.1239 5
    endloop
  endfacet
  facet normal 0.760406 0.649448 0
    outer loop
      vertex -10.1116 -10.1116 30.25
      vertex -11.5689 -8.40533 5
      vertex -11.5689 -8.40533 30.25
    endloop
  endfacet
  facet normal 0.760406 0.649448 0
    outer loop
      vertex -11.5689 -8.40533 5
      vertex -10.1116 -10.1116 30.25
      vertex -10.1116 -10.1116 5
    endloop
  endfacet
  facet normal 0.97237 0.233445 0
    outer loop
      vertex -13.6001 -4.41894 30.25
      vertex -14.1239 -2.23701 5
      vertex -14.1239 -2.23701 30.25
    endloop
  endfacet
  facet normal 0.97237 0.233445 0
    outer loop
      vertex -14.1239 -2.23701 5
      vertex -13.6001 -4.41894 30.25
      vertex -13.6001 -4.41894 5
    endloop
  endfacet
  facet normal 0.760406 -0.649448 0
    outer loop
      vertex -11.5689 8.40533 30.25
      vertex -10.1116 10.1116 5
      vertex -10.1116 10.1116 30.25
    endloop
  endfacet
  facet normal 0.760406 -0.649448 0
    outer loop
      vertex -10.1116 10.1116 5
      vertex -11.5689 8.40533 30.25
      vertex -11.5689 8.40533 5
    endloop
  endfacet
  facet normal 0.522499 -0.85264 0
    outer loop
      vertex -8.40533 11.5689 5
      vertex -6.49206 12.7414 30.25
      vertex -8.40533 11.5689 30.25
    endloop
  endfacet
  facet normal 0.522499 -0.85264 0
    outer loop
      vertex -6.49206 12.7414 30.25
      vertex -8.40533 11.5689 5
      vertex -6.49206 12.7414 5
    endloop
  endfacet
endsolid OpenSCAD_Model
